<?xml version="1.0" encoding="utf-8" ?>
<svg baseProfile="full" height="162.0" version="1.1" width="750" xmlns="http://www.w3.org/2000/svg" xmlns:ev="http://www.w3.org/2001/xml-events" xmlns:xlink="http://www.w3.org/1999/xlink"><defs><marker id="id1" markerHeight="10" markerWidth="10" orient="auto" refX="0" refY="3"><path d="M6,0 L6,7 L0,3 L6,0" fill="#CD3F85" /></marker><marker id="id2" markerHeight="10" markerWidth="10" orient="auto" refX="6" refY="3"><path d="M0,0 L0,7 L6,3 L0,0" fill="#CD3F85" /></marker><marker id="id3" markerHeight="10" markerWidth="10" orient="auto" refX="0" refY="3"><path d="M6,0 L6,7 L0,3 L6,0" fill="#C0C0FF" /></marker><marker id="id4" markerHeight="10" markerWidth="10" orient="auto" refX="6" refY="3"><path d="M0,0 L0,7 L6,3 L0,0" fill="#C0C0FF" /></marker></defs><rect fill="#CD3F85" fill-opacity="0.15" height="162.0" width="323" x="52" y="0" /><line stroke="#CD3F85" stroke-dasharray="5 5" stroke-width="0.5" x1="52" x2="52" y1="0" y2="70" /><line stroke="#CD3F85" stroke-dasharray="5 5" stroke-width="0.5" x1="375" x2="375" y1="0" y2="70" /><line marker-end="url(#id2)" marker-start="url(#id1)" stroke="#CD3F85" stroke-width="0.75" x1="52" x2="375" y1="10" y2="10" /><text fill="#CD3F85" font-family="Helevetica" font-size="6pt" stroke="none" text-anchor="middle" x="213.5" y="8.5">Era 1</text><rect fill="#C0C0FF" fill-opacity="0.15" height="162.0" width="238" x="394" y="0" /><line stroke="#C0C0FF" stroke-dasharray="5 5" stroke-width="0.5" x1="394" x2="394" y1="0" y2="70" /><line stroke="#C0C0FF" stroke-dasharray="5 5" stroke-width="0.5" x1="632" x2="632" y1="0" y2="70" /><line marker-end="url(#id4)" marker-start="url(#id3)" stroke="#C0C0FF" stroke-width="0.75" x1="394" x2="632" y1="10" y2="10" /><text fill="#C0C0FF" font-family="Helevetica" font-size="6pt" stroke="none" text-anchor="middle" x="513.0" y="8.5">Era 2</text><g transform="translate(0,70)"><line stroke="#000000" stroke-width="3" x1="0" x2="750" y1="0" y2="0" /><line stroke="#000000" stroke-width="2" x1="63" x2="63" y1="-5" y2="5" /><text fill="#C0C0C0" font-family="Helevetica" font-size="6pt" stroke="none" text-anchor="end" transform="rotate(180, 63, 0)" writing-mode="tb" x="63" y="-10">Oct 08, 2015 - 02:55PM</text><line stroke="#000000" stroke-width="2" x1="688" x2="688" y1="-5" y2="5" /><text fill="#C0C0C0" font-family="Helevetica" font-size="6pt" stroke="none" text-anchor="end" transform="rotate(180, 688, 0)" writing-mode="tb" x="688" y="-10">Oct 15, 2015 - 02:55PM</text><line stroke="#000000" stroke-width="2" x1="107" x2="107" y1="-5" y2="5" /><text fill="#C0C0C0" font-family="Helevetica" font-size="6pt" stroke="none" text-anchor="end" transform="rotate(180, 107, 0)" writing-mode="tb" x="107" y="-10">Oct 09, 2015 - 02:55AM</text><line stroke="#000000" stroke-width="2" x1="152" x2="152" y1="-5" y2="5" /><text fill="#C0C0C0" font-family="Helevetica" font-size="6pt" stroke="none" text-anchor="end" transform="rotate(180, 152, 0)" writing-mode="tb" x="152" y="-10">Oct 09, 2015 - 02:55PM</text><line stroke="#000000" stroke-width="2" x1="196" x2="196" y1="-5" y2="5" /><text fill="#C0C0C0" font-family="Helevetica" font-size="6pt" stroke="none" text-anchor="end" transform="rotate(180, 196, 0)" writing-mode="tb" x="196" y="-10">Oct 10, 2015 - 02:55AM</text><line stroke="#000000" stroke-width="2" x1="241" x2="241" y1="-5" y2="5" /><text fill="#C0C0C0" font-family="Helevetica" font-size="6pt" stroke="none" text-anchor="end" transform="rotate(180, 241, 0)" writing-mode="tb" x="241" y="-10">Oct 10, 2015 - 02:55PM</text><line stroke="#000000" stroke-width="2" x1="286" x2="286" y1="-5" y2="5" /><text fill="#C0C0C0" font-family="Helevetica" font-size="6pt" stroke="none" text-anchor="end" transform="rotate(180, 286, 0)" writing-mode="tb" x="286" y="-10">Oct 11, 2015 - 02:55AM</text><line stroke="#000000" stroke-width="2" x1="330" x2="330" y1="-5" y2="5" /><text fill="#C0C0C0" font-family="Helevetica" font-size="6pt" stroke="none" text-anchor="end" transform="rotate(180, 330, 0)" writing-mode="tb" x="330" y="-10">Oct 11, 2015 - 02:55PM</text><line stroke="#000000" stroke-width="2" x1="375" x2="375" y1="-5" y2="5" /><text fill="#C0C0C0" font-family="Helevetica" font-size="6pt" stroke="none" text-anchor="end" transform="rotate(180, 375, 0)" writing-mode="tb" x="375" y="-10">Oct 12, 2015 - 02:55AM</text><line stroke="#000000" stroke-width="2" x1="420" x2="420" y1="-5" y2="5" /><text fill="#C0C0C0" font-family="Helevetica" font-size="6pt" stroke="none" text-anchor="end" transform="rotate(180, 420, 0)" writing-mode="tb" x="420" y="-10">Oct 12, 2015 - 02:55PM</text><line stroke="#000000" stroke-width="2" x1="464" x2="464" y1="-5" y2="5" /><text fill="#C0C0C0" font-family="Helevetica" font-size="6pt" stroke="none" text-anchor="end" transform="rotate(180, 464, 0)" writing-mode="tb" x="464" y="-10">Oct 13, 2015 - 02:55AM</text><line stroke="#000000" stroke-width="2" x1="509" x2="509" y1="-5" y2="5" /><text fill="#C0C0C0" font-family="Helevetica" font-size="6pt" stroke="none" text-anchor="end" transform="rotate(180, 509, 0)" writing-mode="tb" x="509" y="-10">Oct 13, 2015 - 02:55PM</text><line stroke="#000000" stroke-width="2" x1="554" x2="554" y1="-5" y2="5" /><text fill="#C0C0C0" font-family="Helevetica" font-size="6pt" stroke="none" text-anchor="end" transform="rotate(180, 554, 0)" writing-mode="tb" x="554" y="-10">Oct 14, 2015 - 02:55AM</text><line stroke="#000000" stroke-width="2" x1="598" x2="598" y1="-5" y2="5" /><text fill="#C0C0C0" font-family="Helevetica" font-size="6pt" stroke="none" text-anchor="end" transform="rotate(180, 598, 0)" writing-mode="tb" x="598" y="-10">Oct 14, 2015 - 02:55PM</text><line stroke="#000000" stroke-width="2" x1="643" x2="643" y1="-5" y2="5" /><text fill="#C0C0C0" font-family="Helevetica" font-size="6pt" stroke="none" text-anchor="end" transform="rotate(180, 643, 0)" writing-mode="tb" x="643" y="-10">Oct 15, 2015 - 02:55AM</text><path d="M186,0 L186,-15 L176,-15" fill="none" stroke="#DD0000" stroke-width="1" /><text fill="#DD0000" font-family="Helevetica" font-size="6pt" stroke="none" text-anchor="end" x="173" y="-13.5">Midnight Event A</text><text fill="#000000" font-family="Helevetica" font-size="6pt" stroke="none" text-anchor="end" transform="rotate(180, 186, 0)" writing-mode="tb" x="186" y="-10">Oct 10, 2015 - 12:00AM</text><circle cx="186" cy="0" fill="white" r="4" stroke="#DD0000" stroke-width="1" /><path d="M230,0 L230,-25 L220,-25" fill="none" stroke="#000000" stroke-width="1" /><text fill="#000000" font-family="Helevetica" font-size="6pt" stroke="none" text-anchor="end" x="217" y="-23.5">Noon Event A</text><text fill="#000000" font-family="Helevetica" font-size="6pt" stroke="none" text-anchor="end" transform="rotate(180, 230, 0)" writing-mode="tb" x="230" y="-10">Oct 10, 2015 - 12:00PM</text><circle cx="230" cy="0" fill="white" r="4" stroke="#000000" stroke-width="1" /><path d="M249,0 L249,-35 L239,-35" fill="none" stroke="#000000" stroke-width="1" /><text fill="#000000" font-family="Helevetica" font-size="6pt" stroke="none" text-anchor="end" x="236" y="-33.5">5pm Event A</text><text fill="#000000" font-family="Helevetica" font-size="6pt" stroke="none" text-anchor="end" transform="rotate(180, 249, 0)" writing-mode="tb" x="249" y="-10">Oct 10, 2015 - 05:00PM</text><circle cx="249" cy="0" fill="white" r="4" stroke="#000000" stroke-width="1" /><path d="M330,0 L330,-45 L320,-45" fill="none" stroke="#000000" stroke-width="1" /><text fill="#000000" font-family="Helevetica" font-size="6pt" stroke="none" text-anchor="end" x="317" y="-43.5">Something amazing happening</text><text fill="#000000" font-family="Helevetica" font-size="6pt" stroke="none" text-anchor="end" transform="rotate(180, 330, 0)" writing-mode="tb" x="330" y="-10">Oct 11, 2015 - 02:55PM</text><circle cx="330" cy="0" fill="white" r="4" stroke="#000000" stroke-width="1" /><path d="M420,0 L420,-15 L410,-15" fill="none" stroke="#DD0000" stroke-width="1" /><text fill="#DD0000" font-family="Helevetica" font-size="6pt" stroke="none" text-anchor="end" x="407" y="-13.5">Awesome Event B</text><text fill="#000000" font-family="Helevetica" font-size="6pt" stroke="none" text-anchor="end" transform="rotate(180, 420, 0)" writing-mode="tb" x="420" y="-10">Oct 12, 2015 - 02:55PM</text><circle cx="420" cy="0" fill="white" r="4" stroke="#DD0000" stroke-width="1" /><path d="M509,0 L509,-15 L499,-15" fill="none" stroke="#000000" stroke-width="1" /><text fill="#000000" font-family="Helevetica" font-size="6pt" stroke="none" text-anchor="end" x="496" y="-13.5">C</text><text fill="#000000" font-family="Helevetica" font-size="6pt" stroke="none" text-anchor="end" transform="rotate(180, 509, 0)" writing-mode="tb" x="509" y="-10">Oct 13, 2015 - 02:55PM</text><circle cx="509" cy="0" fill="white" r="4" stroke="#000000" stroke-width="1" /><path d="M598,0 L598,-15 L588,-15" fill="none" stroke="#000000" stroke-width="1" /><text fill="#000000" font-family="Helevetica" font-size="6pt" stroke="none" text-anchor="end" x="585" y="-13.5">Event E</text><text fill="#000000" font-family="Helevetica" font-size="6pt" stroke="none" text-anchor="end" transform="rotate(180, 598, 0)" writing-mode="tb" x="598" y="-10">Oct 14, 2015 - 02:55PM</text><circle cx="598" cy="0" fill="white" r="4" stroke="#000000" stroke-width="1" /><text fill="#000000" font-family="Helevetica" font-size="6pt" stroke="none" text-anchor="end" transform="rotate(180, 52, 0)" writing-mode="tb" x="52" y="-10">Oct 08, 2015 - 12:00PM</text><text fill="#000000" font-family="Helevetica" font-size="6pt" stroke="none" text-anchor="end" transform="rotate(180, 375, 0)" writing-mode="tb" x="375" y="-10">Oct 12, 2015 - 03:00AM</text><text fill="#000000" font-family="Helevetica" font-size="6pt" stroke="none" text-anchor="end" transform="rotate(180, 394, 0)" writing-mode="tb" x="394" y="-10">Oct 12, 2015 - 08:00AM</text><text fill="#000000" font-family="Helevetica" font-size="6pt" stroke="none" text-anchor="end" transform="rotate(180, 632, 0)" writing-mode="tb" x="632" y="-10">Oct 15, 2015 - 12:00AM</text></g></svg>